<?xml version="1.0" encoding="utf-8"?>
<!-- Generator: Adobe Illustrator 25.2.1, SVG Export Plug-In . SVG Version: 6.00 Build 0)  -->
<svg version="1.1" id="Слой_1" xmlns="http://www.w3.org/2000/svg" xmlns:xlink="http://www.w3.org/1999/xlink" x="0px" y="0px"
	 viewBox="0 0 128 128" style="enable-background:new 0 0 128 128;" xml:space="preserve">
<style type="text/css">
	.st0{clip-path:url(#SVGID_2_);}
	.st1{fill:#FFFFFF;}
</style>
<g>
	<defs>
		<rect id="SVGID_1_" y="14.4" width="128" height="99.2"/>
	</defs>
	<clipPath id="SVGID_2_">
		<use xlink:href="#SVGID_1_"  style="overflow:visible;"/>
	</clipPath>
	<g class="st0">
		<path class="st1" d="M108.4,23.3c-8.2-3.7-16.9-6.5-26.1-8.1c-0.2,0-0.3,0-0.4,0.2c-1.1,2-2.4,4.6-3.2,6.7
			c-9.8-1.5-19.6-1.5-29.3,0c-0.9-2.1-2.2-4.7-3.3-6.7c-0.1-0.1-0.3-0.2-0.4-0.2c-9.1,1.6-17.9,4.3-26.1,8.1c-0.1,0-0.1,0.1-0.2,0.1
			C2.8,48.2-1.7,72.4,0.5,96.3c0,0.1,0.1,0.2,0.2,0.3c10.9,8,21.6,12.9,32,16.2c0.2,0.1,0.3,0,0.4-0.1c2.5-3.4,4.7-6.9,6.5-10.6
			c0.1-0.2,0-0.5-0.2-0.6c-3.5-1.3-6.8-2.9-10-4.8c-0.3-0.1-0.3-0.5,0-0.7c0.7-0.5,1.3-1,2-1.6c0.1-0.1,0.3-0.1,0.4-0.1
			c20.9,9.6,43.6,9.6,64.3,0c0.1-0.1,0.3,0,0.4,0.1c0.6,0.5,1.3,1.1,2,1.6c0.2,0.2,0.2,0.5,0,0.7c-3.2,1.9-6.5,3.4-10,4.8
			c-0.2,0.1-0.3,0.4-0.2,0.6c1.9,3.7,4.1,7.3,6.5,10.6c0.1,0.1,0.3,0.2,0.4,0.2c10.5-3.2,21.1-8.1,32-16.2c0.1-0.1,0.2-0.2,0.2-0.3
			c2.7-27.6-4.5-51.6-18.9-72.9C108.5,23.3,108.4,23.3,108.4,23.3z M42.8,81.7c-6.3,0-11.5-5.8-11.5-12.9c0-7.1,5.1-12.9,11.5-12.9
			c6.5,0,11.6,5.8,11.5,12.9C54.3,75.9,49.2,81.7,42.8,81.7z M85.3,81.7c-6.3,0-11.5-5.8-11.5-12.9c0-7.1,5.1-12.9,11.5-12.9
			c6.5,0,11.6,5.8,11.5,12.9C96.8,75.9,91.8,81.7,85.3,81.7z"/>
	</g>
</g>
</svg>
